<?xml version="1.0" standalone="no"?>
<!DOCTYPE svg PUBLIC "-//W3C//DTD SVG 20010904//EN"
 "http://www.w3.org/TR/2001/REC-SVG-20010904/DTD/svg10.dtd">
<svg version="1.0" xmlns="http://www.w3.org/2000/svg"
 width="13481.000000pt" height="6241.000000pt" viewBox="0 0 13481.000000 6241.000000"
 preserveAspectRatio="xMidYMid meet">

<g transform="translate(0.000000,6241.000000) scale(0.100000,-0.100000)"
fill="#000000" stroke="none">
<path d="M56925 62403 c57 -4 11914 -633 11934 -633 10 0 11 50 6 248 -3 136
-8 280 -11 320 l-6 72 -5986 -2 c-3293 -1 -5964 -3 -5937 -5z"/>
<path d="M78616 62278 c-33 -53 -616 -1091 -614 -1093 2 -1 2523 -136 5603
-299 4641 -246 5603 -299 5623 -312 61 -40 45 -121 -31 -154 -39 -17 -471 -33
-5947 -215 -3248 -109 -5906 -198 -5906 -199 -1 0 -256 -446 -567 -991 l-566
-990 32 -3 c18 -1 2516 -148 5552 -327 4307 -254 5527 -328 5553 -340 19 -9
39 -29 49 -50 15 -32 16 -40 3 -78 -20 -56 -67 -87 -134 -87 -136 -1 -11766
-387 -11769 -391 -9 -11 -1077 -1868 -1082 -1881 -5 -12 858 -62 5546 -322
3970 -220 5565 -312 5599 -322 53 -16 110 -70 110 -105 0 -30 -60 -86 -106
-97 -21 -6 -2696 -104 -5944 -217 -3248 -114 -5906 -208 -5908 -209 -7 -8
-1112 -1980 -1110 -1982 2 -1 2487 -144 5523 -318 3036 -174 5542 -321 5569
-328 95 -21 147 -100 108 -164 -29 -46 -83 -67 -182 -72 -47 -2 -2710 -97
-5918 -211 -3208 -114 -5834 -210 -5836 -212 -14 -17 -1127 -1951 -1124 -1954
2 -2 2492 -142 5533 -310 5312 -295 5532 -308 5575 -328 31 -15 50 -33 63 -59
16 -33 17 -40 3 -73 -11 -26 -27 -41 -59 -55 -41 -18 -947 -50 -16991 -587
-9320 -312 -16943 -569 -16939 -570 5 -1 7233 -403 16063 -893 9750 -541
16071 -896 16095 -903 26 -8 47 -23 62 -46 57 -85 1 -180 -119 -202 -29 -5
-7676 -280 -16992 -612 -9317 -331 -16933 -603 -16925 -605 8 -1 7228 -402
16044 -892 8817 -489 16046 -891 16065 -894 23 -4 46 -17 68 -41 26 -29 32
-43 32 -81 0 -37 -5 -51 -28 -74 -16 -16 -46 -33 -68 -38 -21 -6 -7689 -286
-17039 -624 -9350 -337 -16984 -614 -16965 -616 19 -1 7246 -403 16060 -892
8814 -489 16041 -894 16061 -900 47 -13 116 -87 124 -133 10 -52 -11 -88 -69
-116 l-49 -24 -16931 -603 c-9312 -332 -16947 -604 -16966 -605 -19 -1 7189
-403 16017 -894 13833 -769 16056 -895 16078 -909 53 -35 84 -141 57 -193 -6
-11 -27 -28 -47 -37 -31 -15 -994 -51 -8603 -322 -4712 -168 -8569 -307 -8571
-309 -4 -4 50 -1528 54 -1533 2 -2 3433 -194 7626 -427 7082 -394 7624 -425
7648 -442 63 -47 77 -141 28 -191 -21 -20 -40 -26 -109 -33 -45 -5 -3469 -129
-7608 -275 -4139 -147 -7526 -267 -7528 -269 -5 -5 71 -1710 77 -1716 3 -3
2983 -171 6621 -372 6018 -334 6617 -369 6639 -385 44 -33 64 -69 69 -125 4
-51 2 -57 -30 -92 -34 -37 -36 -38 -134 -46 -54 -5 -3022 -111 -6594 -236
-3572 -124 -6496 -227 -6498 -229 -2 -1 9 -426 24 -943 28 -927 29 -942 49
-946 11 -2 2549 -144 5640 -315 4918 -272 5623 -313 5649 -328 62 -37 82 -126
41 -188 -38 -59 362 -41 -5690 -257 -3080 -110 -5601 -200 -5602 -201 -1 -1
15 -467 35 -1036 l37 -1035 45 -7 c25 -5 2086 -120 4580 -258 2494 -137 4577
-254 4629 -259 81 -7 96 -12 120 -35 22 -22 26 -35 26 -82 0 -51 -3 -58 -37
-89 -25 -23 -49 -35 -80 -39 -23 -3 -2113 -80 -4643 -171 -2529 -91 -4600
-167 -4601 -168 -1 -1 7 -189 17 -417 10 -228 18 -427 18 -442 l1 -28 15223 0
c9933 0 15307 4 15467 10 2064 84 4083 524 6105 1332 822 328 1723 764 2515
1216 1364 778 2581 1667 3708 2709 212 196 760 748 951 958 1273 1399 2132
2797 2536 4127 219 720 453 1705 564 2373 118 710 164 1236 165 1860 0 398 -9
571 -45 905 -147 1336 -658 2466 -1540 3407 -896 954 -2224 1739 -3934 2323
-115 39 -219 75 -229 79 -14 5 18 17 110 40 1689 421 3713 1449 5494 2790
1510 1137 2785 2450 3722 3831 831 1225 1390 2484 1678 3780 482 2173 361
4219 -345 5815 -567 1283 -1485 2296 -2755 3039 -215 126 -685 361 -927 464
-1326 563 -2875 866 -4768 932 -178 6 -4407 10 -11622 10 l-11343 0 -14 -22z
m15124 -8718 c1262 -77 2225 -342 2925 -805 681 -451 1080 -1061 1200 -1835
23 -142 31 -532 15 -687 -43 -426 -147 -732 -391 -1148 -504 -861 -1351 -1747
-2229 -2330 -239 -159 -424 -266 -680 -394 -641 -319 -1256 -491 -1910 -531
-106 -6 -1401 -10 -3623 -10 -2908 0 -3458 2 -3455 14 2 7 989 1751 2193 3874
l2190 3862 1800 0 c1084 0 1866 -4 1965 -10z m-4680 -14380 c1086 -60 1918
-338 2535 -845 117 -97 305 -286 395 -400 262 -330 455 -752 544 -1187 52
-257 60 -350 60 -698 0 -282 -3 -348 -22 -495 -80 -593 -254 -1145 -543 -1725
-336 -672 -762 -1261 -1304 -1805 -1117 -1119 -2532 -1828 -4030 -2020 -414
-52 -48 -49 -5267 -52 -2650 -2 -4818 -1 -4818 2 0 5 5151 9135 5192 9203 l20
32 3526 0 c2274 0 3593 -4 3712 -10z"/>
<path d="M62095 59590 c-3723 -126 -6817 -230 -6875 -232 -63 -2 2692 -168
6832 -412 3816 -226 6939 -408 6942 -405 3 3 -49 1266 -53 1277 -1 1 -18 1
-38 1 -21 -1 -3084 -104 -6808 -229z"/>
<path d="M61205 56360 c-4284 -142 -7812 -260 -7840 -262 -27 -1 3506 -200
7853 -442 4347 -241 7904 -436 7906 -435 1 2 -14 308 -35 679 -21 371 -38 685
-38 698 -1 18 -6 22 -28 21 -16 -1 -3533 -117 -7818 -259z"/>
<path d="M60330 53190 c-4804 -169 -8755 -310 -8780 -311 -25 -2 3941 -233
8814 -512 4872 -279 8861 -506 8863 -503 3 3 -6 353 -21 778 -14 425 -26 792
-26 816 l0 42 -57 -1 c-32 -1 -3989 -140 -8793 -309z"/>
<path d="M59520 49920 c-5354 -192 -9782 -350 -9840 -352 -59 -2 4188 -242
9782 -553 5438 -302 9889 -547 9892 -545 3 4 -49 1775 -54 1798 0 1 -10 1 -22
1 -13 -1 -4404 -158 -9758 -349z"/>
<path d="M48145 33554 c-4191 -150 -7642 -274 -7670 -275 -27 -1 3242 -185
7265 -409 4023 -224 7315 -407 7316 -406 22 35 774 1358 774 1361 0 3 -15 4
-32 4 -18 -1 -3462 -124 -7653 -275z"/>
<path d="M46207 30295 c-4189 -149 -7619 -274 -7621 -276 -3 -2 3266 -185
7262 -407 3997 -222 7290 -405 7318 -408 l50 -6 369 664 c203 364 375 673 383
686 l14 22 -78 -1 c-44 -1 -3507 -124 -7697 -274z"/>
<path d="M44395 27015 c-4235 -150 -7693 -273 -7684 -274 75 -5 14593 -811
14621 -811 l36 0 275 493 c151 270 323 576 380 680 77 136 101 187 89 186 -9
-1 -3482 -124 -7717 -274z"/>
<path d="M42595 23744 c-4191 -150 -7645 -274 -7675 -275 -30 -1 3241 -185
7270 -409 4029 -225 7325 -408 7326 -407 5 9 761 1310 776 1335 l20 32 -49 -1
c-26 -1 -3477 -124 -7668 -275z"/>
<path d="M40880 20480 c-4045 -148 -7402 -270 -7460 -272 -58 -2 3228 -5 7301
-6 l7407 -2 151 269 c83 148 151 272 151 275 0 3 -44 5 -97 5 -54 -1 -3408
-122 -7453 -269z"/>
<path d="M46790 8905 l0 -8585 1415 0 1415 0 0 820 c0 451 3 820 8 819 4 0 39
-36 77 -80 108 -123 406 -412 545 -528 621 -520 1277 -834 2067 -991 417 -82
790 -114 1353 -114 434 -1 536 5 860 45 1157 144 2233 618 3130 1378 167 141
485 454 630 621 998 1143 1574 2566 1680 4148 13 196 13 723 0 912 -55 798
-217 1496 -511 2211 -80 193 -281 599 -389 784 -728 1245 -1821 2195 -3120
2712 -507 202 -1043 331 -1610 388 -217 22 -685 30 -900 16 -756 -51 -1410
-219 -2055 -530 -514 -248 -950 -554 -1365 -958 l-140 -136 0 2827 0 2826
-1545 0 -1545 0 0 -8585z m6910 1764 c661 -58 1326 -301 1875 -684 358 -249
721 -612 968 -967 670 -961 873 -2161 556 -3288 -240 -855 -774 -1609 -1505
-2127 -919 -651 -2091 -871 -3189 -597 -429 107 -845 291 -1215 537 -233 156
-391 287 -605 501 -621 623 -1004 1417 -1110 2301 -23 186 -30 530 -16 710 55
700 262 1310 637 1876 630 955 1633 1579 2769 1724 268 34 553 39 835 14z"/>
<path d="M76280 8905 l0 -8585 1540 0 1540 0 0 8585 0 8585 -1540 0 -1540 0 0
-8585z"/>
<path d="M5765 13469 c-857 -77 -1551 -364 -2274 -943 -160 -127 -248 -206
-468 -415 l-163 -153 0 611 0 611 -1430 0 -1430 0 0 -6435 0 -6435 1545 0
1544 0 4 3363 c4 3439 4 3436 42 3902 65 774 213 1389 450 1870 333 676 816
1052 1510 1176 116 21 161 24 410 24 249 0 294 -3 410 -24 422 -75 747 -242
1035 -531 525 -525 817 -1381 910 -2660 25 -345 30 -942 30 -3947 l0 -3173
1540 0 1540 0 0 3738 c0 2314 -4 3838 -10 4002 -44 1155 -172 1831 -491 2585
-84 199 -258 543 -343 680 -455 724 -1102 1300 -1901 1690 -470 229 -950 374
-1485 446 -128 17 -217 22 -515 24 -198 2 -405 -1 -460 -6z"/>
<path d="M18440 13473 c-1125 -66 -2245 -440 -3205 -1071 -1569 -1030 -2648
-2683 -2964 -4544 -68 -395 -94 -728 -95 -1173 0 -330 9 -496 40 -775 201
-1808 1160 -3479 2629 -4578 1218 -912 2705 -1376 4235 -1321 1801 64 3544
924 4729 2332 396 470 732 1027 959 1589 42 102 162 440 162 454 0 2 -764 4
-1697 4 l-1698 0 -30 -48 c-158 -253 -410 -554 -627 -749 -460 -413 -976 -644
-1628 -729 -167 -21 -592 -30 -757 -15 -719 66 -1380 341 -1936 806 -427 358
-778 828 -992 1330 -49 116 -135 358 -135 381 0 12 747 14 4903 14 l4903 0 23
143 c87 560 117 814 132 1143 18 367 -7 801 -67 1204 -296 1980 -1528 3762
-3294 4765 -855 486 -1774 765 -2752 834 -131 10 -698 12 -838 4z m920 -2837
c559 -74 1064 -259 1500 -549 298 -198 607 -490 827 -782 242 -321 432 -685
570 -1090 49 -146 113 -369 113 -397 0 -17 -116 -18 -3516 -18 l-3516 0 7 37
c11 58 71 252 122 392 310 858 893 1560 1648 1981 441 247 946 398 1485 444
118 10 641 -2 760 -18z"/>
<path d="M101570 13470 c-756 -70 -1375 -295 -1991 -726 -250 -175 -474 -362
-756 -631 l-163 -155 0 611 0 611 -1430 0 -1430 0 0 -6435 0 -6435 1545 0
1545 0 0 3163 c0 3148 4 3550 35 3977 64 863 218 1521 471 2021 130 256 259
437 443 619 291 289 617 453 1056 531 116 21 161 24 410 24 249 0 294 -3 410
-24 472 -84 854 -301 1147 -650 430 -513 689 -1293 782 -2351 39 -440 39 -449
43 -3917 l4 -3393 1539 0 1540 0 0 3733 c0 4090 -1 4192 -61 4797 -81 826
-262 1467 -608 2158 -424 846 -1145 1546 -2056 1996 -479 237 -960 383 -1505
457 -128 17 -217 22 -515 24 -198 2 -403 -1 -455 -5z"/>
<path d="M114180 13474 c-970 -67 -1865 -311 -2695 -735 -1057 -539 -1935
-1328 -2588 -2324 -977 -1493 -1307 -3337 -911 -5103 430 -1920 1698 -3580
3451 -4515 804 -429 1654 -680 2598 -769 189 -18 931 -18 1120 0 1192 112
2264 486 3230 1127 428 284 745 545 1105 912 631 641 947 1115 1267 1898 79
192 213 543 213 556 0 5 -678 9 -1739 9 l-1739 0 -96 -137 c-254 -367 -547
-684 -853 -921 -419 -326 -879 -522 -1413 -603 -139 -21 -188 -24 -470 -23
-239 0 -346 4 -445 17 -781 104 -1431 385 -1980 857 -127 110 -365 355 -469
485 -106 133 -271 379 -355 531 -527 951 -646 2196 -314 3309 378 1269 1317
2199 2523 2500 292 73 469 95 807 102 1126 23 1888 -273 2502 -973 177 -201
341 -426 505 -691 l57 -93 1740 0 c1141 0 1739 3 1739 10 0 5 -23 71 -50 145
-185 496 -447 1017 -724 1440 -1070 1633 -2749 2690 -4666 2940 -316 41 -414
47 -855 50 -242 1 -465 1 -495 -1z"/>
<path d="M127850 13473 c-269 -15 -684 -72 -972 -133 -1452 -308 -2786 -1127
-3753 -2305 -1212 -1477 -1750 -3422 -1474 -5335 290 -2017 1518 -3814 3296
-4824 1084 -615 2281 -909 3536 -865 1453 50 2871 615 4017 1603 147 127 440
416 581 573 542 605 959 1311 1208 2048 l51 150 -1698 3 c-1563 2 -1698 1
-1707 -14 -37 -60 -194 -280 -265 -371 -100 -128 -399 -431 -520 -527 -358
-285 -777 -478 -1240 -570 -255 -51 -361 -60 -715 -60 -357 0 -464 10 -735 70
-648 145 -1243 470 -1715 940 -401 398 -688 856 -874 1397 -29 85 -37 119 -28
122 6 3 2215 6 4907 8 l4895 2 42 270 c92 598 115 849 115 1260 0 446 -32 787
-113 1210 -358 1871 -1556 3539 -3232 4499 -864 495 -1780 774 -2777 846 -121
9 -692 11 -830 3z m780 -2824 c614 -56 1171 -248 1650 -569 324 -217 665 -554
896 -886 178 -255 333 -556 453 -877 50 -133 132 -404 146 -479 l7 -38 -3517
0 -3518 0 7 38 c10 64 85 301 143 452 513 1344 1656 2227 3053 2358 136 13
545 14 680 1z"/>
<path d="M66880 13453 c-36 -2 -153 -12 -261 -23 -1800 -181 -3457 -1206
-4494 -2780 -852 -1293 -1230 -2849 -1079 -4452 179 -1920 1126 -3675 2566
-4759 908 -683 1915 -1071 3078 -1184 352 -35 993 -30 1405 11 1093 107 1934
454 2700 1115 130 113 389 367 504 493 l71 80 0 -822 0 -822 1415 0 1415 0 0
6275 0 6275 -1540 0 -1540 0 0 -515 c0 -318 -4 -515 -9 -515 -6 0 -22 16 -37
35 -34 45 -268 264 -399 373 -852 712 -1927 1133 -3089 1211 -144 10 -543 12
-706 4z m1165 -2789 c774 -78 1495 -382 2102 -886 155 -128 416 -393 535 -542
475 -593 750 -1255 844 -2026 25 -201 25 -636 0 -845 -123 -1049 -634 -1977
-1448 -2626 -580 -462 -1277 -747 -2033 -831 -180 -20 -653 -17 -835 6 -748
91 -1424 374 -2006 841 -1062 852 -1603 2218 -1414 3567 86 613 317 1199 674
1709 161 230 419 515 631 698 821 710 1875 1044 2950 935z"/>
<path d="M86500 13453 c-36 -2 -153 -12 -261 -23 -1673 -168 -3216 -1058
-4269 -2462 -682 -909 -1116 -1980 -1274 -3143 -66 -485 -78 -1112 -31 -1615
154 -1634 840 -3127 1946 -4230 972 -970 2224 -1567 3594 -1714 494 -53 1187
-45 1695 20 945 120 1682 424 2375 980 221 177 449 393 648 614 l67 74 0 -822
0 -822 1420 0 1420 0 0 6275 0 6275 -1545 0 -1545 0 0 -515 c0 -320 -4 -515
-10 -515 -5 0 -24 19 -42 41 -41 51 -262 258 -394 368 -852 712 -1936 1136
-3094 1210 -150 10 -538 12 -700 4z m1165 -2789 c542 -54 1077 -227 1551 -500
140 -80 357 -229 498 -342 150 -120 453 -420 574 -570 483 -596 767 -1275 858
-2052 21 -176 24 -608 6 -780 -115 -1083 -627 -2020 -1472 -2695 -111 -89
-365 -260 -497 -334 -452 -255 -972 -421 -1518 -483 -148 -17 -636 -17 -790 0
-798 88 -1522 398 -2125 907 -299 253 -583 582 -790 915 -639 1029 -763 2285
-340 3427 67 181 237 525 338 686 376 597 905 1087 1517 1404 678 351 1430
494 2190 417z"/>
<path d="M25335 12123 c196 -582 1162 -3477 2149 -6433 l1794 -5375 993 0 993
0 1247 4145 c686 2280 1250 4154 1253 4165 3 10 7 17 10 15 4 -5 2436 -8315
2436 -8325 0 -3 469 -4 1042 -3 l1042 3 2058 6425 c1131 3534 2057 6428 2058
6433 0 4 -574 6 -1277 5 l-1276 -3 -1311 -3900 c-721 -2145 -1315 -3909 -1319
-3919 -4 -10 -9 -17 -12 -15 -2 3 -490 1750 -1085 3884 -594 2134 -1086 3897
-1092 3918 l-11 37 -1243 0 -1243 0 -14 -47 c-8 -27 -504 -1787 -1102 -3913
-599 -2126 -1092 -3869 -1096 -3873 -3 -5 -595 1756 -1314 3912 l-1307 3921
-1363 0 -1364 0 354 -1057z"/>
</g>
</svg>
