<?xml version="1.0" encoding="utf-8"?>
<!-- Generator: Adobe Illustrator 23.0.3, SVG Export Plug-In . SVG Version: 6.00 Build 0)  -->
<svg version="1.1" id="svg8" xmlns="http://www.w3.org/2000/svg" xmlns:xlink="http://www.w3.org/1999/xlink" x="0px" y="0px"
	 viewBox="0 0 122.1 127.4" style="enable-background:new 0 0 122.1 127.4;" xml:space="preserve">
<style type="text/css">
	.st0{fill-rule:evenodd;clip-rule:evenodd;}
</style>
<g id="layer1" transform="translate(0 -169.848)">
	<path id="path855" class="st0" d="M116.8,260.1c0,20.5-16.6,37.1-37.1,37.1c-5.9,0-11.5-1.4-16.5-3.9c-5,2.4-10.6,3.9-16.4,3.9
		c-20.5,0-37.1-16.6-37.1-37.1s16.6-37.1,37.1-37.1c5.9,0,11.5,1.4,16.4,3.8c5-2.4,10.6-3.8,16.5-3.8
		C100.2,222.9,116.8,239.6,116.8,260.1z M109.5,260.1c0-16.4-13.4-29.8-29.8-29.8c-3.1,0-6.2,0.5-9,1.4c5.7,4.8,9.8,11.1,11.9,18.5
		h-7.7c-2.2-6.1-6.3-11.4-11.7-14.9c-5.4,3.5-9.4,8.8-11.6,14.9h-7.7c2-7.2,6.1-13.7,11.9-18.5c-2.9-0.9-6-1.4-9-1.4
		C30.4,230.2,17,243.6,17,260c0,16.4,13.4,29.8,29.8,29.8c3.1,0,6.1-0.5,8.9-1.4c-7.4-6.2-12.2-15.3-13-25.5h17.7v7.3l-8.6,0.1
		c2.2,6,6.2,11,11.5,14.5c5.2-3.5,9.2-8.5,11.5-14.5l-8.6-0.1V263h17.7c-0.8,10.2-5.7,19.2-13.1,25.4c2.9,0.9,5.9,1.4,9,1.4
		C96.2,289.9,109.5,276.6,109.5,260.1z"/>
	<path d="M110.6,177.6l-0.2,0.1c-0.9-1.9-2.2-3.5-3.8-4.6c-1.6-1.1-3.7-1.7-6.1-1.7c-1.4,0-2.7,0.3-3.9,0.9
		c-1.2,0.6-2.3,1.4-3.3,2.4c-0.9,1-1.6,2.2-2.2,3.7c-0.6,1.4-0.8,3-0.8,4.8c0,1.7,0.3,3.3,0.8,4.8c0.6,1.4,1.3,2.7,2.2,3.7
		c0.9,1,2,1.8,3.3,2.4c1.2,0.6,2.5,0.8,3.9,0.8c2.4,0,4.4-0.4,5.9-1.1c1.5-0.8,2.9-2,3.9-3.6l0.2,0.1l-0.1,2.4
		c-0.6,0.6-1.3,1.2-2,1.6c-0.8,0.5-1.6,0.8-2.5,1.2c-0.9,0.3-1.8,0.5-2.7,0.7c-0.9,0.2-1.9,0.3-2.8,0.3c-2,0-3.8-0.3-5.6-0.9
		c-1.8-0.6-3.3-1.5-4.7-2.7c-1.3-1.2-2.4-2.6-3.2-4.2c-0.8-1.6-1.2-3.5-1.2-5.5c0-2,0.4-3.8,1.2-5.4c0.8-1.6,1.9-3.1,3.2-4.2
		c1.3-1.2,2.9-2.1,4.7-2.7c1.8-0.6,3.6-0.9,5.6-0.9c0.9,0,1.9,0.1,2.8,0.2c0.9,0.2,1.8,0.4,2.7,0.7c0.9,0.3,1.7,0.7,2.5,1.2
		c0.8,0.5,1.4,1,2,1.6L110.6,177.6z"/>
	<path d="M26.8,184.9c-0.3,0.1-0.5,0.3-0.8,0.5c-0.3,0.2-0.4,0.5-0.4,0.8v4.7c-1.2,1.7-2.8,3.1-4.7,4.1c-1.9,1-4,1.4-6.3,1.4
		c-2,0-3.8-0.3-5.6-1c-1.8-0.6-3.3-1.5-4.7-2.7c-1.3-1.2-2.4-2.6-3.2-4.2C0.4,187,0,185.1,0,183.1c0-2,0.4-3.8,1.2-5.4
		c0.8-1.6,1.8-3.1,3.2-4.2c1.3-1.2,2.9-2.1,4.7-2.7c1.8-0.6,3.6-1,5.6-1c0.9,0,1.9,0.1,2.8,0.2c0.9,0.2,1.8,0.4,2.7,0.7
		c0.9,0.3,1.7,0.7,2.5,1.2c0.8,0.5,1.4,1,2,1.6l0.2,4l-0.2,0.1c-0.9-1.9-2.2-3.5-3.8-4.6c-1.6-1.1-3.7-1.7-6.1-1.7
		c-1.4,0-2.7,0.3-3.9,0.9c-1.2,0.6-2.3,1.4-3.3,2.4c-0.9,1-1.6,2.2-2.2,3.7c-0.6,1.4-0.8,3-0.8,4.8c0,1.7,0.3,3.3,0.8,4.8
		c0.6,1.4,1.3,2.7,2.2,3.7c0.9,1,2,1.8,3.3,2.4c1.2,0.6,2.6,0.8,4,0.8c2.6,0,4.9-0.5,6.8-1.5v-7.1c0-0.4-0.1-0.6-0.4-0.8
		c-0.3-0.2-0.5-0.4-0.8-0.5l0-0.2c0.1,0,0.4,0,0.7,0.1c0.3,0,0.7,0,1,0.1h3.3c0.3,0,0.6,0,0.9-0.1c0.3,0,0.5,0,0.6-0.1L26.8,184.9z"
		/>
	<path d="M54.4,170.6c-0.3,0.1-0.5,0.3-0.8,0.5c-0.3,0.2-0.4,0.6-0.4,1.1c0,0.6,0,1.4-0.1,2.3c0,0.9,0,2,0,3.1c0,1.2,0,2.4,0,3.8
		v4.3c0,1.6-0.2,3.1-0.6,4.2c-0.4,1.2-0.9,2.1-1.5,2.9c-0.6,0.8-1.3,1.4-2.1,1.9c-0.7,0.5-1.5,0.8-2.2,1c-0.7,0.3-1.4,0.4-2,0.5
		c-0.6,0.1-1.1,0.1-1.5,0.1c-1.4,0-2.8-0.2-4.2-0.6c-1.3-0.4-2.5-0.9-3.5-1.8c-1-0.8-1.8-1.9-2.4-3.2c-0.6-1.3-0.9-2.9-0.9-4.7v-4.3
		v-4c0-1.2,0-2.3,0-3.3c0-1,0-1.8,0-2.4c0-0.6-0.2-0.9-0.4-1.1c-0.3-0.2-0.5-0.4-0.8-0.5l0-0.2c0.1,0,0.3,0,0.6,0.1
		c0.3,0,0.6,0,0.9,0.1c0.3,0,0.6,0,1,0h1.4c0.3,0,0.6,0,1,0c0.3,0,0.6,0,0.9-0.1c0.3,0,0.5,0,0.6-0.1l0,0.2
		c-0.3,0.1-0.5,0.3-0.8,0.5c-0.2,0.2-0.4,0.6-0.4,1.1c0,0.6,0,1.4-0.1,2.4v11.5c0,2.8,0.6,4.8,1.9,6.1c1.3,1.3,3.2,2,5.7,2
		c0.7,0,1.6-0.1,2.5-0.3c0.9-0.2,1.8-0.6,2.6-1.2c0.8-0.6,1.5-1.5,2.1-2.6c0.6-1.1,0.9-2.6,0.9-4.4c0-2,0-3.7,0-5.1
		c0-1.4,0-2.7,0-3.7c0-1,0-1.9,0-2.7c0-0.7,0-1.4-0.1-2c0-0.6-0.2-0.9-0.4-1.1c-0.3-0.2-0.5-0.4-0.8-0.5l0-0.2
		c0.3,0.1,0.6,0.1,1,0.2c0.4,0,0.7,0,1,0c0.3,0,0.6,0,1,0c0.4-0.1,0.7-0.1,1-0.2L54.4,170.6z"/>
	<path d="M82,177.6l-0.2,0.1c-0.9-1.9-2.2-3.5-3.8-4.6c-1.6-1.1-3.7-1.7-6.1-1.7c-1.4,0-2.7,0.3-3.9,0.9c-1.2,0.6-2.3,1.4-3.3,2.4
		c-0.9,1-1.6,2.2-2.2,3.7c-0.6,1.4-0.8,3-0.8,4.8c0,1.7,0.3,3.3,0.8,4.8c0.6,1.4,1.3,2.7,2.2,3.7c0.9,1,2,1.8,3.3,2.4
		c1.2,0.6,2.5,0.8,3.9,0.8c2.4,0,4.4-0.4,5.9-1.1c1.5-0.8,2.9-2,3.9-3.6l0.2,0.1l-0.1,2.4c-0.6,0.6-1.3,1.2-2,1.6
		c-0.8,0.5-1.6,0.8-2.5,1.2c-0.9,0.3-1.8,0.5-2.7,0.7c-0.9,0.2-1.9,0.3-2.8,0.3c-2,0-3.8-0.3-5.6-0.9c-1.8-0.6-3.3-1.5-4.7-2.7
		c-1.3-1.2-2.4-2.6-3.2-4.2c-0.8-1.6-1.2-3.5-1.2-5.5c0-2,0.4-3.8,1.2-5.4c0.8-1.6,1.9-3.1,3.2-4.2c1.3-1.2,2.9-2.1,4.7-2.7
		c1.8-0.6,3.6-0.9,5.6-0.9c0.9,0,1.9,0.1,2.8,0.2c0.9,0.2,1.8,0.4,2.7,0.7c0.9,0.3,1.7,0.7,2.5,1.2c0.8,0.5,1.4,1,2,1.6L82,177.6z"
		/>
	<path d="M122.1,195.7c-0.1,0-0.3,0-0.6-0.1c-0.3,0-0.6,0-0.9,0c-0.3,0-0.6,0-1,0h-2.3c-0.3,0-0.6,0-0.9,0.1c-0.3,0-0.5,0-0.6,0.1
		l0-0.2c0.3-0.1,0.5-0.3,0.8-0.5c0.3-0.2,0.4-0.6,0.4-1.1c0-0.6,0-1.2,0-1.9c0-0.7,0-1.4,0-2.2V187v-3.8v-3.8v-2.9
		c0-0.8,0-1.6,0-2.2c0-0.7,0-1.3,0-1.9c0-0.6-0.2-0.9-0.4-1.1c-0.3-0.2-0.5-0.4-0.8-0.5l0-0.2c0.2,0.1,0.4,0.1,0.6,0.1
		c0.3,0,0.6,0,0.9,0c0.3,0,0.6,0,1,0h1.3c0.3,0,0.6,0,0.9,0c0.3,0,0.6,0,0.9-0.1c0.3,0,0.5,0,0.6-0.1l0,0.2
		c-0.3,0.1-0.5,0.3-0.8,0.5c-0.2,0.2-0.4,0.6-0.4,1.1c0,0.6,0,1.2-0.1,1.9v17.9c0,0.7,0,1.3,0.1,1.9c0,0.6,0.1,0.9,0.4,1.1
		c0.3,0.2,0.5,0.4,0.8,0.5L122.1,195.7z"/>
</g>
</svg>
