<?xml version="1.0" encoding="utf-8"?>
<!-- Generator: Adobe Illustrator 23.0.3, SVG Export Plug-In . SVG Version: 6.00 Build 0)  -->
<svg version="1.1"
	 id="svg2" inkscape:output_extension="org.inkscape.output.svg.inkscape" inkscape:version="0.46" sodipodi:docname="1000px-Louis_Vuitton_Logo.svg" sodipodi:version="0.32" xmlns:cc="http://creativecommons.org/ns#" xmlns:dc="http://purl.org/dc/elements/1.1/" xmlns:inkscape="http://www.inkscape.org/namespaces/inkscape" xmlns:rdf="http://www.w3.org/1999/02/22-rdf-syntax-ns#" xmlns:sodipodi="http://sodipodi.sourceforge.net/DTD/sodipodi-0.dtd" xmlns:svg="http://www.w3.org/2000/svg"
	 xmlns="http://www.w3.org/2000/svg" xmlns:xlink="http://www.w3.org/1999/xlink" x="0px" y="0px" viewBox="0 0 241.1 291.6"
	 style="enable-background:new 0 0 241.1 291.6;" xml:space="preserve">
<g>
	<path id="path5" d="M178,0c20.7,0,41.4,0,62.1,0c0,4.7,0,9.3,0,14c-5.3,0.2-10.6,0.8-15.5,3c-4.9,2.2-9,6.2-11.1,11.2
		c-25.2,59.2-50.3,118.3-75.4,177.5c-0.4,1-0.8,2-1.3,2.9c-9-0.1-18,0-27,0c-4-7.9-7.9-15.8-11.9-23.7c-4.6,12.3-9.2,24.6-13.8,36.9
		c29.7,0,59.4,0,89.1,0c5.4,0.1,11-0.2,16.1-2.3c8.5-3.4,15.2-10,20.7-17.1c6.6-8.6,11.6-18.3,16.1-28.2c5,0,10,0,15,0
		c-9.5,20.3-19.1,40.6-28.6,60.8c-68.4,0-136.8,0-205.3,0c1.7-4.3,3.3-8.7,5-13c0.1-0.4,0.7-0.3,1-0.4c8.5-0.1,17.1-0.4,25.5-2.2
		c4.4-1,8.9-2.4,12.2-5.5c1.8-1.7,2.3-4.2,2.9-6.4c8.1-21.6,16.2-43.2,24.3-64.9C61,106.2,43.9,69.8,26.8,33.4
		c-1.4-3.2-3.2-6.3-6.1-8.4C14.8,20.6,7.1,20,0,19.7C0,14.5,0,9.3,0,4.1c24,0,48,0,72.1,0c0,5.2,0,10.4,0,15.7
		c-3.1,0.2-6.5,0.1-9.3,1.7c-1.4,0.7-2.2,2.3-1.9,3.9c0.4,2.5,2.4,4.3,3.4,6.5c10.1,21.9,20.3,43.7,30.5,65.5
		c5.1-14.3,10.2-28.5,15.3-42.8c0.8-2,1-4.3,0.2-6.3c-0.7-1.6-2.2-2.5-3.7-3.2c-2.9-1.2-6.1-1.2-9.2-1.4c1.6-4.4,3.2-8.8,4.8-13.2
		c0.4-0.2,0.9-0.1,1.3-0.1c24.4,0,48.8,0,73.1,0c-1.7,4.4-3.4,8.8-5,13.3c-5.9,0.3-11.9,0.4-17.4,2.7c-2.5,1.1-4.9,2.7-6.4,5
		c-1,1.7-1.7,3.6-2.4,5.5c-10.2,27.8-20.5,55.5-30.5,83.3c5.6,12.6,11.4,25.1,17.1,37.7c20.7-48.8,41.3-97.6,62-146.4
		c1.4-2.9,3.7-5.6,3.8-9c0.2-2.6-1.8-4.9-4.1-6c-4.9-2.3-10.4-2.4-15.7-2.6C178,9.3,178,4.7,178,0z"/>
	<path id="path7" d="M215.6,262.7c6.5,6.8,13,13.6,19.5,20.4c0-6.3,0-12.7,0-19c1.1,0,2.2,0,3.4,0c0,9,0,18.1,0,27.1
		c-6.5-6.7-13-13.5-19.5-20.3c0,6.4,0,12.7,0,19.1c-1.1,0-2.2,0-3.4,0C215.6,280.9,215.6,271.8,215.6,262.7z"/>
	<path id="path9" d="M25.7,263.6c7.2-1.1,14.8,4.5,15.4,11.9c0.6,4.2-1,8.6-4.1,11.5c-5,4.9-14.1,4.8-19-0.3c-2.6-2.6-4.2-6.3-4-10
		C14.1,270.3,19.4,264.6,25.7,263.6 M25.7,267c-4.2,0.7-7.6,4.4-8.2,8.5c-0.8,4.7,2.1,9.8,6.7,11.4c4,1.5,8.9,0.1,11.4-3.3
		c3.3-4.2,2.8-10.9-1.3-14.3C32,267.1,28.7,266.4,25.7,267z"/>
	<path id="path11" d="M77.6,265c3.7-2.8,9.7-1.6,11.8,2.6c-0.9,0.5-1.8,1-2.7,1.5c-1.6-2.5-5.5-3.1-7.6-1c-0.9,0.7-0.8,1.9-0.7,2.9
		c0.3,1.3,1.6,1.9,2.7,2.5c2.6,1.4,5.8,2.2,7.7,4.7c2.1,2.8,1.7,7-0.5,9.6c-2.4,2.9-6.7,3.5-10,2.1c-2.5-1.2-4.1-3.9-4.6-6.6
		c1.1-0.3,2.3-0.5,3.4-0.8c0.1,2.5,2,5,4.6,5c3.5,0.4,6.3-4.2,4.3-7.1c-2.2-3-6.4-3-8.9-5.6C74.1,272.3,74.4,267.1,77.6,265z"/>
	<path id="path13" d="M197.8,263.6c4.7-0.6,9.6,1.6,12.5,5.3c4.2,5.2,3.5,13.5-1.4,18c-2.8,2.8-7,3.9-10.9,3.5
		c-3.9-0.3-7.5-2.4-9.7-5.5c-2.4-3.3-3-7.8-1.9-11.7C187.8,268.1,192.5,264.3,197.8,263.6 M197.2,267c-5.2,0.9-8.9,6.4-8,11.6
		c0.6,4.9,5.3,9,10.2,8.9c3.4,0.1,6.6-1.9,8.4-4.7c2.8-4,2-10-1.5-13.3C204,267.1,200.4,266.3,197.2,267z"/>
	<path id="path15" d="M2.7,264.1c1.1,0,2.1,0,3.2,0c0,7.7,0,15.3,0,23c2.7,0,5.3,0,8,0c0,1,0,2,0,3c-3.7,0-7.5,0-11.2,0
		C2.7,281.4,2.7,272.7,2.7,264.1z"/>
	<path id="path17" d="M43.7,264.1c1.1,0,2.3,0,3.4,0c0,5.1,0,10.2,0,15.3c0.1,2.2,0.3,4.7,1.9,6.4c2.5,2.5,7.5,2.1,9.3-1.1
		c0.9-1.5,1.2-3.3,1.1-5c0-5.2,0-10.4,0-15.7c1.1,0,2.3,0,3.4,0c0,5.3,0,10.7,0,16c0,2.4-0.4,5-2,6.9c-3.3,4.6-11,4.9-14.7,0.5
		c-1.7-1.8-2.4-4.4-2.5-6.8C43.7,275.1,43.7,269.6,43.7,264.1z"/>
	<path id="path19" d="M67,264.1c1.1,0,2.2,0,3.4,0c0,8.7,0,17.3,0,26c-1.1,0-2.2,0-3.4,0C67,281.4,67,272.7,67,264.1z"/>
	<path id="path21" d="M100.6,264.1c1.2,0,2.5,0,3.7,0c2.6,6.3,5.1,12.6,7.6,19c2.5-6.3,5.1-12.6,7.6-18.9c1.3-0.1,2.5,0,3.8-0.1
		c-3.8,9.2-7.6,18.4-11.4,27.5C108.1,282.4,104.4,273.2,100.6,264.1z"/>
	<path id="path23" d="M124.9,264c1.1,0,2.2,0,3.4,0c0,5,0,10.1,0,15.1c0.1,2.4,0.3,5.1,2.1,6.9c2.1,1.8,5.5,1.9,7.7,0.3
		c1.3-0.9,2-2.5,2.3-4c0.4-2.7,0.3-5.3,0.3-8c0-3.4,0-6.8,0-10.2c1.1,0,2.2,0,3.2,0c0,4.7,0,9.5,0,14.2c0.1,2.9,0,6.1-1.8,8.6
		c-3.1,4.5-10.3,5-14.3,1.3c-2-1.8-3-4.5-3-7.2C124.9,275.3,124.9,269.7,124.9,264z"/>
	<path id="path25" d="M148.2,264.1c1.2,0,2.3,0,3.5,0c0,8.7,0,17.3,0,26c-1.2,0-2.3,0-3.5,0C148.1,281.4,148.2,272.7,148.2,264.1z"
		/>
	<path id="path27" d="M153.8,264.1c10.5,0,20.9,0,31.4,0c0,1,0,2.1,0,3.1c-2,0-4,0-6,0c0,7.6,0,15.2,0,22.8c-1.2,0-2.3,0-3.5,0
		c0-7.6,0-15.2,0-22.8c-4.1,0-8.2,0-12.3,0c0,7.6,0,15.2,0,22.8c-1.1,0-2.1,0-3.2,0c0-7.6,0-15.2,0-22.8c-2.1,0-4.2,0-6.3,0
		C153.8,266.1,153.8,265.1,153.8,264.1z"/>
</g>
</svg>
