<?xml version="1.0" encoding="utf-8"?>
<!-- Generator: Adobe Illustrator 23.0.3, SVG Export Plug-In . SVG Version: 6.00 Build 0)  -->
<svg version="1.1" id="Layer_1" xmlns="http://www.w3.org/2000/svg" xmlns:xlink="http://www.w3.org/1999/xlink" x="0px" y="0px"
	 viewBox="0 0 330.5 165.9" enable-background="new 0 0 330.5 165.9" xml:space="preserve">
<g>
	<path d="M0,0c11.5,0,22.9,0,34.4,0c5.9,0,11.8,2.2,16.1,6.2c3.6,3.3,5.8,8.1,5.7,13c0.1,4.5-1.3,9-4.1,12.5c-2.3,2.8-5.5,4.8-8.9,6
		c3.6,1,7,3,9.1,6.1c1.7,2.3,2.3,5.2,2.3,8.1c0,5.2,0,10.4,0,15.7c-4.8,0-9.7,0-14.5,0c0-4.2,0-8.4,0-12.6c-0.1-3-0.8-6.2-3-8.4
		c-2.3-2.3-5.7-3-8.8-3.1c-3.3,0-6.5,0-9.8,0c0-3.9,0-7.8,0-11.7c4.7,0,9.4,0,14.2,0c3.3,0,6.5-2,7.9-5c1.9-3.9,1.3-9.3-2.1-12.2
		c-2-1.6-4.6-2.2-7.1-2.2c-5.8,0-11.7,0-17.5,0c0,14.4,0,28.8,0,43.2c-4.6,0-9.2,0-13.8,0C0,36.9,0,18.5,0,0z"/>
	<path d="M174,0c4.7,0,9.5,0,14.2,0c0,14.5,0,29.1,0,43.6c3.6,0,7.3,0,10.9,0c4.6,0.1,8.8-3.9,9.3-8.5c0.8-4.8-2.6-10.1-7.5-11
		c-2.6-0.4-5.2-0.1-7.9-0.2c0-3.9,0-7.9,0-11.8c3,0,6.1,0,9.1,0c6.4-0.1,12.6,3.2,16.4,8.3c3.8,5.1,5,11.8,3.8,18
		c-1.7,7.7-8.3,13.6-15.7,15.8c-3.7,1.2-7.7,1.2-11.5,1.1c-7,0-14.1,0-21.1,0C174,37,174,18.5,174,0z"/>
	<path d="M285.5,0c4.8,0,9.5,0,14.3,0c0,8.8,0,17.6,0,26.4c3-0.1,6,0.3,9-0.3c2.8-0.6,5-2.7,6-5.3c1.1-2.8,1.1-5.8,1.2-8.7
		c4.7,0,9.4,0,14.1,0c-0.1,4.6-0.1,9.4-2.5,13.5c-2,3.6-5.9,5.5-9.7,6.7c4.5,1.3,8.8,3.9,10.8,8.3c2.3,4.6,1.5,9.8,1.7,14.8
		c-4.7,0-9.5,0-14.2,0c-0.3-4.1,0.8-8.6-1.4-12.3c-1.7-3.1-5.3-4.6-8.6-4.8c-2.1-0.1-4.2,0-6.3,0c0,5.7,0,11.5,0,17.2
		c-4.8,0-9.5,0-14.3,0C285.5,36.9,285.5,18.5,285.5,0z"/>
	<path d="M247.4,12.1c7-1.2,14.6-0.6,20.9,2.8c4.9,2.6,8.7,7.1,10.2,12.4c1.9,6.5,1.1,14-2.8,19.7c-3.3,4.8-8.7,8-14.4,9.2
		c-6.6,1.5-13.8,1-20-1.9c-5.9-2.8-10.8-8.1-12.4-14.5c-1.7-6.6-0.4-14,3.9-19.4C236.4,15.9,241.8,13.1,247.4,12.1 M250.9,23.1
		c-5.1,1.3-8.9,6.4-8.5,11.7c0.2,3.8,2.4,7.4,5.6,9.3c3.2,2,7.4,2.2,10.9,0.5c5.2-2.4,8-9.1,5.8-14.5
		C262.6,24.7,256.3,21.4,250.9,23.1z"/>
	<path d="M64.3,22.3c3.7-6,10.5-9.9,17.6-10c9.2,0,18.4,0,27.6,0c-0.1,4.2,0.1,8.5-0.1,12.7c-3,4.8-6.1,9.5-9.1,14.2
		c-4.6,0-9.1,0-13.7,0c3-5,6-10,9-15.1c-3.7,0-7.4,0-11.1,0c-3.3-0.1-6.6,1.8-8.3,4.6c-2.1,3.3-1.9,7.8,0.4,10.9
		c1.8,2.7,5.1,4.2,8.3,4.2c8.2,0,16.3,0,24.5,0c0,3.9,0,7.8,0,11.8c-7.9,0-15.7,0-23.6,0c-3.2,0-6.5,0-9.6-0.9
		C70.1,52.8,64.9,48,62.6,42C60,35.7,60.6,28.1,64.3,22.3z"/>
	<path d="M124.9,16.4c3.6-2.7,8.1-4.1,12.6-4.2c9,0,18.1,0,27.1,0c0,4.2,0,8.4,0,12.6c-3,4.7-6.1,9.5-9.1,14.2c-4.6,0-9.1,0-13.7,0
		c3-5,6-10,9-15.1c-4,0-8,0-12.1,0c-5.3,0.4-9.5,5.9-8.7,11.2c0.6,4.6,4.7,8.4,9.3,8.5c8.4,0.1,16.8,0,25.2,0c0,3.9,0,7.8,0,11.8
		c-9,0-18.1,0.1-27.1,0c-5.6,0-11.1-2.3-15-6.3c-4.6-4.5-7-11.2-6.3-17.6C116.8,25.6,120,19.9,124.9,16.4z"/>
	<path d="M237.4,84.9c31-3.4,62-5.9,93.1-7.9c-16.8,4.3-33.7,8.4-50.3,13.3c-23.4,6.7-46.2,15.2-68.7,24.3
		c-11.8-7-23.6-13.8-35.4-20.8C196.4,89.9,216.9,87.2,237.4,84.9z"/>
	<path d="M13.5,79C52.2,79,91,78.9,129.7,79c8.5,4.3,16.6,9.1,24.9,13.8c32,18.4,63.8,37.1,95.5,56c7.6,4.6,15.2,9.1,22.8,13.8
		c1.7,1.1,3.4,2,4.9,3.3c-34.2-14.4-68.1-29.5-102.8-42.7c-29.6-11.3-59.8-21-90.5-28.8c-16.9-4.3-34-8.1-51.2-11.5
		C26.7,81.4,20,80.4,13.5,79z"/>
	<path d="M56,135.6c16.1-10.6,33.9-18.3,52-24.7c10.8,2.9,21.4,6.5,32,9.9c-14.1,5.6-27.7,12.7-39.9,21.8
		c-7.8,5.9-15.3,12.3-21.3,20.1c-17.5,0-35.1,0-52.6,0C34.4,152.1,44.7,143,56,135.6z"/>
	<path d="M109.5,150.9c12.1-11,26.2-19.7,41.2-26.4c8.4,2.9,16.8,6.1,25.1,9.3c-7.2,5.1-14.4,10.4-20.4,17
		c-3.5,3.7-6.5,7.8-9.3,11.9c-15.9,0-31.7,0-47.6,0C101.7,158.4,105.6,154.6,109.5,150.9z"/>
</g>
</svg>
