<svg id="Layer_1" data-name="Layer 1" xmlns="http://www.w3.org/2000/svg" width="263.95" height="90.6" viewBox="0 0 263.95 90.6"><title>Stone Island logo - Brandlogos.net</title><path d="M393.26,399.38c1.86,0,2.37,1.18,2.37,3v20.79c0,2-.51,3-2.37,3v2.37h11.33v-2.37c-2-.17-2.54-.85-2.54-3.38V402.09c0-2,.68-3,2.54-3v-2.37H393.26Z" transform="translate(-252.02 -338.7)"/><path d="M421.15,413.24c-1.69-2-3.38-3.38-3.89-4.06l-3.38-3.38a5.17,5.17,0,0,1-1.86-2.87,3.54,3.54,0,0,1,.51-3.38,3.41,3.41,0,0,1,3-1,5.87,5.87,0,0,1,3.21,2,18.87,18.87,0,0,1,1.69,3c.17.85.34,1.35.34,1.52s.17.85.17,1h2.7v-9.47h-2a1.32,1.32,0,0,1-.51.68c-.34.17-.51,0-.68,0a12.94,12.94,0,0,0-3.89-1.18,11.1,11.1,0,0,0-6.25.68,13.25,13.25,0,0,0-2.54,1.69,8.32,8.32,0,0,0-1.69,2.54,7.9,7.9,0,0,0-.17,5.58,16.31,16.31,0,0,0,3,4.73l2.37,2.37a30.42,30.42,0,0,1,2.54,2.7c.85.85,1.69,1.69,2.87,3a5.14,5.14,0,0,1,1.35,4.06,3.47,3.47,0,0,1-1.52,2.54,3.53,3.53,0,0,1-3.21.17,4.83,4.83,0,0,1-2.37-2,12.68,12.68,0,0,1-1.35-3c-.34-1-.68-2.37-.68-2.37h-2.37v9.63h1.69c.17-.17.51-.68.85-.85a1.62,1.62,0,0,1,1.52,0,11.15,11.15,0,0,0,1.86.68,13.55,13.55,0,0,0,3.89.51,8.26,8.26,0,0,0,6.76-4.23,10.31,10.31,0,0,0,.85-6.25c-.34-1.86-1.35-3.21-2.87-5.07Z" transform="translate(-252.02 -338.7)"/><path d="M364.69,426.43c-2.37,0-3.72-1.69-3.72-4.39v-8.79c3.38,0,6.42,1.18,6.76,4.23h2.2V407.16h-2.2c-.51,2.7-3.38,3.72-6.76,3.72V399.38h1.69c3,0,5.92.68,7.78,4.39h2V397H351.34v2.37c1.86,0,2.7,1,2.7,3v20.45c0,2.2-.51,3.21-2.54,3.38v2.37h20.62l.85-8.11h-2c-1.35,3.89-3.89,5.92-6.25,5.92Z" transform="translate(-252.02 -338.7)"/><path d="M340.69,399.38c2.37.34,2.87,1.69,2.87,5.07v12h-.17l-12-19.44h-9.13v2.37c1.18.34,3.38,1.18,4.23,3v16.9c0,4.9-.51,6.09-2.87,7.1v2.37h8.62v-2.37c-2.54-.51-3-2.2-3-5.07V404.62l.17.17L344.07,429h2.2V403.78c0-1.86.34-3.21,1-3.89a4.62,4.62,0,0,1,2.54-.68v-2.37h-9v2.54Z" transform="translate(-252.02 -338.7)"/><path d="M296.74,397H271.89v6.93h2c.85-4.23,4.73-4.56,6.93-4.56v24c0,2-.34,3-2.54,3v2.37h12.17v-2.37C288,426.26,288,425.08,288,423V399.38c2.37,0,5.75.68,6.59,4.56h2.2Z" transform="translate(-252.02 -338.7)"/><path d="M267.67,413.24a49.63,49.63,0,0,0-3.89-4.06l-3.38-3.38a5.17,5.17,0,0,1-1.86-2.87,3.54,3.54,0,0,1,.51-3.38,3.41,3.41,0,0,1,3-1,5.87,5.87,0,0,1,3.21,2,13.7,13.7,0,0,1,1.69,3c.17.85.34,1.35.34,1.52s.17.85.17,1h2.7v-9.47h-2a1.32,1.32,0,0,1-.51.68c-.34.17-.51,0-.68,0a12.94,12.94,0,0,0-3.89-1.18,11.1,11.1,0,0,0-6.25.68,13.25,13.25,0,0,0-2.54,1.69,8.32,8.32,0,0,0-1.69,2.54,7.9,7.9,0,0,0-.17,5.58,13.45,13.45,0,0,0,3,4.73l2.37,2.37a30.42,30.42,0,0,1,2.54,2.7c.85.85,1.69,1.69,2.87,3a5.14,5.14,0,0,1,1.35,4.06,3.47,3.47,0,0,1-1.52,2.54,3.53,3.53,0,0,1-3.21.17,4.83,4.83,0,0,1-2.37-2,12.68,12.68,0,0,1-1.35-3c-.34-1-.68-2.37-.68-2.37h-2.37v9.63h1.69c.17-.17.51-.68.85-.85a1.62,1.62,0,0,1,1.52,0,11.15,11.15,0,0,0,1.86.68,13.55,13.55,0,0,0,3.89.51,8.26,8.26,0,0,0,6.76-4.23,10.31,10.31,0,0,0,.85-6.25c-.34-1.86-1.35-3.21-2.87-5.07Z" transform="translate(-252.02 -338.7)"/><path d="M309.76,396.51c-3.55,0-13,2.2-13,16.23,0,13.86,9,16.57,13,16.57s13-2.7,13-16.57C322.77,398.71,313.14,396.51,309.76,396.51Zm3.89,26.88c-.85,1.86-1.69,3.55-3.89,3.55s-3.72-2.37-4.23-4.06a44.19,44.19,0,0,1-.85-10.31,46.16,46.16,0,0,1,.85-9.63c.34-1.35,1.52-4.23,4.23-4.23,1.86,0,3.38,1.52,4.06,3.72a45.75,45.75,0,0,1,1,10.14C314.83,415.61,314.49,421.53,313.64,423.38Z" transform="translate(-252.02 -338.7)"/><path d="M390.38,370.65l-6.59-31.95-6.42,31.95-31.95,6.42,31.95,6.42,6.42,31.95,6.42-31.95,31.95-6.42-31.78-6.42Zm-40.91,6.42,28.23-5.75,5.58,5.75Zm34.31,34.31L378,383.15l5.75-5.58Zm0-68.63L389.54,371l-5.75,5.58ZM390,382.82l-5.58-5.75h33.81Z" transform="translate(-252.02 -338.7)"/><path d="M485,399.38c2.37.34,2.87,1.86,2.87,5.24v12h-.17l-11.83-19.44H467.8v2.37c1.18.34,3,2.7,3,2.7v18.42c-.17,2.2-.17,4.39-1.18,5.41a1.43,1.43,0,0,1-1.18.34c-1.18,0-1.86-1-3-5.58l-6.09-23.66h-6.59l.68,2.54-5.75,19.95c-1.35,4.9-2,6.42-3.55,7.27v1.86h7.78v-1.86a3.24,3.24,0,0,1-2.2-3.21,18.67,18.67,0,0,1,.51-2.7l.85-2.87H458l.85,3.55a16,16,0,0,1,.51,2.7,2.74,2.74,0,0,1-1.86,2.7V429h19.1v-2c-2.54-.51-3.21-2.54-3.21-5.41v-16.9l.17.17L488.26,429h2.2V403.78c0-2.7.17-4.06,2-4.39V397h-7.61v2.37Zm-33,15.72,2.7-11H455l2.54,11Z" transform="translate(-252.02 -338.7)"/><path d="M503,397h-9.13v2.37c1.18.34,1.52,1.52,1.52,2.87v20.62c0,2.2,0,3.21-1.52,3.38v2.37h10c10,0,12.17-8.28,12.17-15.89,0-11.33-4.39-15.72-13-15.72Zm1.35,29.41c-1.52,0-2.37-.68-2.37-3.55v-23.5h.85c3.21,0,5.92,2.54,5.92,13.18C508.71,420.68,507.86,426.43,504.31,426.43Z" transform="translate(-252.02 -338.7)"/><path d="M435.69,426.43c-1.69,0-1.52-1.69-1.52-4.9V402.59c0-2,.51-3,2.54-3.21V397h-11v2.37c1.69.17,2.2,1,2.2,3.21v20.62c0,2-.34,3-2.2,3.21v2.37H443l1-7.94h-1.86c-1.52,3.55-4.06,5.58-6.42,5.58Z" transform="translate(-252.02 -338.7)"/></svg>