<svg xmlns="http://www.w3.org/2000/svg" xmlns:xlink="http://www.w3.org/1999/xlink" width="369" zoomAndPan="magnify" height="35" preserveAspectRatio="xMidYMid meet" version="1.0" style=""><rect id="backgroundrect" width="100%" height="100%" x="0" y="0" fill="none" stroke="none" class="" style=""/><defs><g id="svg_1"/></defs><g class="currentLayer" style=""><title>Layer 1</title><g fill="#2e939d" fill-opacity="1" id="svg_2" class=""><g id="svg_3"><g id="svg_4"><path d="M15.531250059604645,0.6875 C18.601563059604644,0.6875 21.269531059604645,1.1992189999999991 23.531250059604645,2.21875 C25.800781059604645,3.230468999999999 27.550781059604645,4.683593999999999 28.781250059604645,6.578125 C30.007813059604644,8.464844 30.625000059604645,10.6875 30.625000059604645,13.25 C30.625000059604645,15.804687000000001 30.007813059604644,18.015625 28.781250059604645,19.890625 C27.550781059604645,21.765625 25.800781059604645,23.214844 23.531250059604645,24.234374999999996 C21.269531059604645,25.257813 18.601563059604644,25.765625 15.531250059604645,25.765625 L9.609375059604645,25.765625 L9.609375059604645,34.640625 L5.960464466436832e-8,34.640625 L5.960464466436832e-8,0.6875 zM14.953125059604645,18.1875 C16.921875059604645,18.1875 18.406250059604645,17.761719 19.406250059604645,16.90625 C20.414063059604644,16.054687 20.921875059604645,14.835937000000001 20.921875059604645,13.25 C20.921875059604645,11.667969 20.414063059604644,10.4375 19.406250059604645,9.5625 C18.406250059604645,8.6875 16.921875059604645,8.25 14.953125059604645,8.25 L9.609375059604645,8.25 L9.609375059604645,18.1875 zM14.953125059604645,18.1875 " id="svg_5"/></g></g></g><g fill="#2e939d" fill-opacity="1" id="svg_6" class=""><g id="svg_7"><g id="svg_8"><path d="M49.19334226846695,35.3125 C45.60740526846695,35.3125 42.38474826846695,34.55859380000001 39.52146726846695,33.046875 C36.65427926846695,31.527344 34.40427926846695,29.421875 32.77146726846695,26.734375 C31.14646726846695,24.046875 30.33396726846695,21.023437 30.33396726846695,17.65625 C30.33396726846695,14.292969 31.14646726846695,11.273437000000001 32.77146726846695,8.59375 C34.40427926846695,5.90625 36.65427926846695,3.8046870000000013 39.52146726846695,2.28125 C42.38474826846695,0.7617189999999996 45.60740526846695,-5.551115123125783e-17 49.19334226846695,-5.551115123125783e-17 C52.78709226846695,-5.551115123125783e-17 56.01365526846695,0.7617189999999996 58.88084226846695,2.28125 C61.74412326846695,3.8046870000000013 63.99021726846695,5.90625 65.61521726846695,8.59375 C67.24802926846695,11.273437000000001 68.06834226846695,14.292969 68.06834226846695,17.65625 C68.06834226846695,21.023437 67.24802926846695,24.046875 65.61521726846695,26.734375 C63.99021726846695,29.421875 61.74412326846695,31.527344 58.88084226846695,33.046875 C56.01365526846695,34.55859380000001 52.78709226846695,35.3125 49.19334226846695,35.3125 zM49.19334226846695,27.359374999999996 C50.91209226846695,27.359374999999996 52.46287326846695,26.960937 53.84959226846695,26.15625 C55.24412326846695,25.34375 56.34177926846695,24.203124999999996 57.14646726846695,22.734375 C57.95896726846695,21.257813 58.36521726846695,19.5625 58.36521726846695,17.65625 C58.36521726846695,15.75 57.95896726846695,14.0625 57.14646726846695,12.59375 C56.34177926846695,11.125 55.24412326846695,9.984375 53.84959226846695,9.171875 C52.46287326846695,8.359375 50.91209226846695,7.953125 49.19334226846695,7.953125 C47.48240526846695,7.953125 45.93162326846695,8.359375 44.53709226846695,9.171875 C43.15037326846695,9.984375 42.05271726846695,11.125 41.24021726846695,12.59375 C40.43552926846695,14.0625 40.03709226846695,15.75 40.03709226846695,17.65625 C40.03709226846695,19.5625 40.43552926846695,21.257813 41.24021726846695,22.734375 C42.05271726846695,24.203124999999996 43.15037326846695,25.34375 44.53709226846695,26.15625 C45.93162326846695,26.960937 47.48240526846695,27.359374999999996 49.19334226846695,27.359374999999996 zM49.19334226846695,27.359374999999996 " id="svg_9"/></g></g></g><g fill="#2e939d" fill-opacity="1" id="svg_10" class=""><g id="svg_11"><g id="svg_12"><path d="M69.42488294839859,0.6875 L79.03425794839859,0.6875 L79.03425794839859,34.640625 L69.42488294839859,34.640625 zM69.42488294839859,0.6875 " id="svg_13"/></g></g></g><g fill="#2e939d" fill-opacity="1" id="svg_14" class=""><g id="svg_15"><g id="svg_16"><path d="M110.91838270425797,27.03125 L110.91838270425797,34.640625 L80.49650770425797,34.640625 L80.49650770425797,28.625 L97.62150770425797,8.296875 L80.93400770425797,8.296875 L80.93400770425797,0.6875 L110.18400770425797,0.6875 L110.18400770425797,6.703125 L93.05900770425797,27.03125 zM110.91838270425797,27.03125 " id="svg_17"/></g></g></g><g fill="#2e939d" fill-opacity="1" id="svg_18" class=""><g id="svg_19"><g id="svg_20"><path d="M128.56344801187515,35.3125 C124.97751101187515,35.3125 121.75485401187515,34.55859380000001 118.89157301187515,33.046875 C116.02438501187515,31.527344 113.77438501187515,29.421875 112.14157301187515,26.734375 C110.51657301187515,24.046875 109.70407301187515,21.023437 109.70407301187515,17.65625 C109.70407301187515,14.292969 110.51657301187515,11.273437000000001 112.14157301187515,8.59375 C113.77438501187515,5.90625 116.02438501187515,3.8046870000000013 118.89157301187515,2.28125 C121.75485401187515,0.7617189999999996 124.97751101187515,-5.551115123125783e-17 128.56344801187515,-5.551115123125783e-17 C132.15719801187515,-5.551115123125783e-17 135.38376101187515,0.7617189999999996 138.25094801187515,2.28125 C141.11422901187515,3.8046870000000013 143.36032301187515,5.90625 144.98532301187515,8.59375 C146.61813501187515,11.273437000000001 147.43844801187515,14.292969 147.43844801187515,17.65625 C147.43844801187515,21.023437 146.61813501187515,24.046875 144.98532301187515,26.734375 C143.36032301187515,29.421875 141.11422901187515,31.527344 138.25094801187515,33.046875 C135.38376101187515,34.55859380000001 132.15719801187515,35.3125 128.56344801187515,35.3125 zM128.56344801187515,27.359374999999996 C130.28219801187515,27.359374999999996 131.83297901187515,26.960937 133.21969801187515,26.15625 C134.61422901187515,25.34375 135.71188501187515,24.203124999999996 136.51657301187515,22.734375 C137.32907301187515,21.257813 137.73532301187515,19.5625 137.73532301187515,17.65625 C137.73532301187515,15.75 137.32907301187515,14.0625 136.51657301187515,12.59375 C135.71188501187515,11.125 134.61422901187515,9.984375 133.21969801187515,9.171875 C131.83297901187515,8.359375 130.28219801187515,7.953125 128.56344801187515,7.953125 C126.85251101187515,7.953125 125.30172901187515,8.359375 123.90719801187515,9.171875 C122.52047901187515,9.984375 121.42282301187515,11.125 120.61032301187515,12.59375 C119.80563501187515,14.0625 119.40719801187515,15.75 119.40719801187515,17.65625 C119.40719801187515,19.5625 119.80563501187515,21.257813 120.61032301187515,22.734375 C121.42282301187515,24.203124999999996 122.52047901187515,25.34375 123.90719801187515,26.15625 C125.30172901187515,26.960937 126.85251101187515,27.359374999999996 128.56344801187515,27.359374999999996 zM128.56344801187515,27.359374999999996 " id="svg_21"/></g></g></g><g fill="#2e939d" fill-opacity="1" id="svg_22" class=""><g id="svg_23"><g id="svg_24"><path d="M181.1075001358986,0.6875 L181.1075001358986,34.640625 L173.2012501358986,34.640625 L158.2168751358986,16.546875 L158.2168751358986,34.640625 L148.7950001358986,34.640625 L148.7950001358986,0.6875 L156.7012501358986,0.6875 L171.7012501358986,18.78125 L171.7012501358986,0.6875 zM181.1075001358986,0.6875 " id="svg_25"/></g></g></g><g fill="#000000" fill-opacity="1" id="svg_26" class=""><g id="svg_27"><g id="svg_28"/></g></g><g fill="#ffffff" fill-opacity="1" id="svg_29" class=""><g id="svg_30"><g id="svg_31"><path d="M204.26951795816422,8.109375 L204.26951795816422,15.578125 L219.26951795816422,15.578125 L219.26951795816422,23 L204.26951795816422,23 L204.26951795816422,34.640625 L194.66014295816422,34.640625 L194.66014295816422,0.6875 L221.30076795816422,0.6875 L221.30076795816422,8.109375 zM204.26951795816422,8.109375 " id="svg_32"/></g></g></g><g fill="#ffffff" fill-opacity="1" id="svg_33" class=""><g id="svg_34"><g id="svg_35"><path d="M244.88513380289078,28.046875 L230.52575880289078,28.046875 L227.85388380289078,34.640625 L218.05700880289078,34.640625 L233.04138380289078,0.6875 L242.49450880289078,0.6875 L257.5413838028908,34.640625 L247.54138380289078,34.640625 zM242.07263380289078,20.953124999999996 L237.69763380289078,10.09375 L233.33825880289078,20.953124999999996 zM242.07263380289078,20.953124999999996 " id="svg_36"/></g></g></g><g fill="#ffffff" fill-opacity="1" id="svg_37" class=""><g id="svg_38"><g id="svg_39"><path d="M287.23698621988297,34.640625 L287.12761121988297,16.640625 L278.40886121988297,31.296875 L274.12761121988297,31.296875 L265.45573621988297,17.125 L265.45573621988297,34.640625 L256.56511121988297,34.640625 L256.56511121988297,0.6875 L264.47136121988297,0.6875 L276.40886121988297,20.28125 L288.04948621988297,0.6875 L295.97136121988297,0.6875 L296.06511121988297,34.640625 zM287.23698621988297,34.640625 " id="svg_40"/></g></g></g><g fill="#ffffff" fill-opacity="1" id="svg_41" class=""><g id="svg_42"><g id="svg_43"><path d="M299.1613331437111,0.6875 L308.7707081437111,0.6875 L308.7707081437111,34.640625 L299.1613331437111,34.640625 zM299.1613331437111,0.6875 " id="svg_44"/></g></g></g><g fill="#ffffff" fill-opacity="1" id="svg_45" class=""><g id="svg_46"><g id="svg_47"><path d="M311.92045789957047,0.6875 L321.52983289957047,0.6875 L321.52983289957047,27.03125 L337.73295789957047,27.03125 L337.73295789957047,34.640625 L311.92045789957047,34.640625 zM311.92045789957047,0.6875 " id="svg_48"/></g></g></g><g fill="#ffffff" fill-opacity="1" id="svg_49" class=""><g id="svg_50"><g id="svg_51"><path d="M356.03044325113297,22.46875 L356.03044325113297,34.640625 L346.42106825113297,34.640625 L346.42106825113297,22.3125 L333.46794325113297,0.6875 L343.60856825113297,0.6875 L351.65544325113297,14.171875 L359.71794325113297,0.6875 L369.03044325113297,0.6875 zM356.03044325113297,22.46875 " id="svg_52"/></g></g></g></g></svg>